<svg id="Layer_1" data-name="Layer 1" xmlns="http://www.w3.org/2000/svg" viewBox="0 0 90 90" fill="#fff"><title>Icons</title><path d="M86,0H4A4,4,0,0,0,0,4V65.7a4,4,0,0,0,4,4H32.34V79.85H11a2,2,0,0,0-2,2v6a2,2,0,0,0,2,2H79a2,2,0,0,0,2-2v-6a2,2,0,0,0-2-2H57.66V69.7H86a4,4,0,0,0,4-4V4A4,4,0,0,0,86,0ZM77,85.85H13v-2H77Zm-23.34-16v10H36.34v-10ZM86,4v7.69H4V4Zm0,11.69V53.35H4V15.69ZM4,65.7V57.35H86V65.7Z"/><circle cx="8.08" cy="7.56" r="2"/><circle cx="14.08" cy="7.56" r="2"/><circle cx="45" cy="61.52" r="2"/><path d="M67.34,48.51A13.26,13.26,0,1,0,54.08,35.26,13.27,13.27,0,0,0,67.34,48.51Zm9-15.25h-7v-7A9.28,9.28,0,0,1,76.37,33.26Zm-11-7v11h11a9.25,9.25,0,1,1-11-11Z"/><path d="M11.08,50h6a3,3,0,0,0,3-3V33.33a3,3,0,0,0-3-3h-6a3,3,0,0,0-3,3V47A3,3,0,0,0,11.08,50Zm1-15.67h4V46h-4Z"/><path d="M26.08,50h6a3,3,0,0,0,3-3V21a3,3,0,0,0-3-3h-6a3,3,0,0,0-3,3V47A3,3,0,0,0,26.08,50Zm1-28h4V46h-4Z"/><path d="M41.08,50h6a3,3,0,0,0,3-3V25.33a3,3,0,0,0-3-3h-6a3,3,0,0,0-3,3V47A3,3,0,0,0,41.08,50Zm1-23.67h4V46h-4Z"/></svg>
