<svg version="1.1" id="Layer_1" xmlns="http://www.w3.org/2000/svg" x="0" y="0" viewBox="0 0 90 90" xml:space="preserve" fill="#8a8a8a"><style/><path d="M88.9 12L78.1 1.1c-1.5-1.5-3.9-1.5-5.3 0L29.8 44c-.4.4-.7.9-.9 1.4L23 62.2c-.5 1.4-.1 2.9.9 3.9.7.7 1.7 1.1 2.6 1.1.4 0 .9-.1 1.3-.2l16.7-5.9c.5-.2 1-.5 1.4-.9l42.9-42.9c1.6-1.5 1.6-3.9.1-5.3zm-7.8 7.4L43.2 57.3 27 63.1l5.7-16.2L62.6 17l4-4 8.8-8.8 10.5 10.5-4.8 4.7z"/><path d="M77.1 23.4v60.3c0 1.1-.9 2-2 2H6.4c-1.1 0-2-.9-2-2V14.9c0-1.1.9-2 2-2h60.2l4-4H6.4c-3.3 0-6 2.7-6 6v68.7c0 3.3 2.7 6 6 6h68.7c3.3 0 6-2.7 6-6V19.4l-4 4z"/></svg>