<svg version="1.1" id="Layer_1" xmlns="http://www.w3.org/2000/svg" x="0" y="0" viewBox="0 0 90 90" xml:space="preserve" fill="#8a8a8a"><style/><path d="M86.9 8.7H58.1V0H31.9v8.7H3.1c-1.7 0-3 1.3-3 3V22c0 1.7 1.3 3 3 3h6.4v60.1c0 2.8 2.2 5 5 5h61.2c2.8 0 5-2.2 5-5V25h6.4c1.7 0 3-1.3 3-3V11.7c-.2-1.7-1.5-3-3.2-3zM35.9 4h18.3v3.8H35.9V4zm40.7 81.1c0 .6-.4 1-1 1H14.4c-.6 0-1-.4-1-1V25h63.2v60.1zM85.9 21H4.1v-8.3H86V21z"/><path d="M45 78.7c1.1 0 2-.9 2-2V35.5c0-1.1-.9-2-2-2s-2 .9-2 2v41.2c0 1.1.9 2 2 2zm17.3 0c1.1 0 2-.9 2-2V35.5c0-1.1-.9-2-2-2s-2 .9-2 2v41.2c0 1.1.8 2 2 2zm-34.5 0c1.1 0 2-.9 2-2V35.5c0-1.1-.9-2-2-2s-2 .9-2 2v41.2c0 1.1.8 2 2 2z"/></svg>